<svg xmlns="http://www.w3.org/2000/svg" width="19" height="17">
    <path fill="#EBEBEB" fill-rule="evenodd" d="M16.511 3.524l1.847-.369S16.811 4.905 16.511 5c-.003.001-.006-.002-.009-.002-.039.853.009 1.109.009 1.109-3.529 15.21-16.518 8.486-16.518 8.486 4.726.125 5.147-1.845 5.147-1.845-2.768-.42-3.301-2.214-3.301-2.214.94.431 1.467-.369 1.467-.369C.319 9.389.738 6.476.738 6.476c.499.458 1.315.633 1.801.699-.338-.394-3.126-3.756-1.434-5.496 0 0 2.036 3.684 7.428 4.036l.361-.091c-.056-.261-.086-.531-.086-.808 0-2.14 1.725-3.875 3.852-3.875 2.564 0 3.118 1.476 3.118 1.476l1.834-1.107s-.201 1.85-1.101 2.214z"/>
</svg>
