<svg xmlns="http://www.w3.org/2000/svg" width="19" height="16">
    <path fill="#EBEBEB" fill-rule="evenodd" d="M11.211 3.812c-.009.458.567.105 1.1.37.533.265 1.594.567.734 2.951 0 0-1.203 3.594-2.201 3.321 0 0-1.549.062-1.834-3.321C8.725 3.751 8.147.316 6.442.492 4.738.668 2.264 2.334.585 4.55c0 0 .463 1.158 1.089 1.107.625-.05.586-.961 1.1-.738.514.224 1.309.187 1.834 3.321.525 3.134 1.306 4.782 2.201 6.272.894 1.491 1.802 1.491 2.568 1.491.765 0 3.22-1.778 5.502-4.811 2.282-3.033 4.044-6.688 4.044-7.38 0-.691.646-3.24-1.843-3.689-2.489-.449-5.836 2.066-5.869 3.689z"/>
</svg>
